<?xml version="1.0" encoding="UTF-8"?>
<svg width="41px" height="37px" viewBox="0 0 41 37" version="1.1" xmlns="http://www.w3.org/2000/svg" xmlns:xlink="http://www.w3.org/1999/xlink">
    <title>contract</title>
    <g id="Ecommerce" stroke="none" stroke-width="1" fill="none" fill-rule="evenodd">
        <g id="PRODUCTO-ZAGA-1440" transform="translate(-1202.000000, -807.000000)" fill-rule="nonzero">
            <g id="contract" transform="translate(1203.000000, 808.000000)">
                <path d="M34.8873238,0 L9.66858229,0 C7.47995228,0 5.69931962,1.7534333 5.69931962,3.90169563 L5.53679909,25.9753363 L0.615234189,25.9753363 C0.266447279,25.9753363 0,26.2818806 0,26.6285822 L0,29.666436 C0,32.5102474 2.28947292,34.8359988 5.05262989,34.9635212 L5.05262989,35 L26.2894649,35 L26.2894649,34.958923 C26.4473596,34.9653605 26.5429599,35 26.6515125,35 L26.6666235,35 C29.6135797,34.9828335 31.9890929,32.5951601 31.9736735,29.665823 L31.9736735,10.3587444 L38.3847527,10.3587444 C38.7335396,10.3587444 39,10.044843 39,9.69844805 L39,4.12455334 C39.003996,1.85919105 37.1663116,0.0162468274 34.8873238,0 Z M5.32894558,33.7443946 L5.32462811,33.7443946 C3.07802115,33.7443946 1.26315747,31.8986915 1.26315747,29.665823 L1.26315747,27.2309417 L21.3157823,27.2309417 L21.3157823,29.6554004 C21.3108481,31.0685696 21.8724227,32.4253346 22.8762259,33.4258951 C22.9829282,33.5325725 23.0945646,33.5874439 23.2086682,33.7443946 L5.32894558,33.7443946 Z M30.710516,29.6652098 C30.710516,31.8986915 28.9132304,33.7443946 26.6656983,33.7443946 L26.652746,33.7443946 C24.3941119,33.7281478 22.5736972,31.9008373 22.5789398,29.655707 L22.5789398,26.6285822 C22.5807902,26.2769759 22.3010822,25.9875981 21.9473611,25.9753363 L6.79995656,25.9753363 L6.96247709,3.90598729 C6.96247709,2.44591685 8.17629247,1.25560538 9.66858229,1.25560538 L31.9055198,1.25560538 C31.185742,2.04035874 30.710516,3.0332557 30.710516,4.1414133 L30.710516,29.6652098 Z M37.7368616,4.13558893 L37.7368616,9.10313901 L31.9736735,9.10313901 L31.9736735,4.14018704 C31.9736735,2.56884109 33.2886402,1.25560538 34.8688205,1.25560538 L34.8863986,1.25560538 C36.4705881,1.27123916 37.7442308,2.55596619 37.7368616,4.13099075 L37.7368616,4.13558893 Z" id="Shape" stroke="#FFFFFF" stroke-width="0.5" fill="#000000"></path>
                <path d="M14.1155548,14.7755208 L17.6256951,16.8953868 C17.8547402,17.0348711 18.1575849,17.0348711 18.38663,16.8953868 L21.8861325,14.7761081 C23.1018332,14.043449 23.9997297,12.5117658 23.9997297,11.2129478 L23.9997297,6.92388231 C24.0070432,6.69718379 23.8654275,6.48692973 23.6367149,6.38385823 L18.2922196,4.06166669 C18.1047284,3.97944444 17.884659,3.97944444 17.6971678,4.06166669 L12.3626453,6.37739795 C12.1339327,6.48046937 11.9926495,6.69072351 12.0002955,6.91742195 L12.0002955,11.2129478 C12.0002955,12.5117658 12.9001866,14.043449 14.1155548,14.7755208 Z M13.3619334,7.29270787 L18.0000126,5.27121489 L22.6380918,7.29828726 L22.6380918,11.2129478 C22.6380918,12.1188609 21.965916,13.2711471 21.1178842,13.781806 L17.9920342,15.6702752 L14.8784842,13.7820997 C14.0304524,13.2708535 13.3619334,12.1188609 13.3619334,11.2129478 L13.3619334,7.29270787 Z" id="Shape" stroke="#FFFFFF" stroke-width="0.5" fill="#B52924"></path>
                <path d="M17.1528361,12.7995899 C17.2461868,12.9268862 17.3737497,12.9990208 17.5071775,13 L17.5083994,13 C17.6413386,12.9993472 17.7686571,12.9281918 17.8622521,12.8022011 L19.8531621,10.1420353 C20.0489052,9.88091477 20.0489052,9.4572466 19.8534065,9.19612603 C19.6581521,8.93467908 19.3409555,8.93467908 19.1454567,9.19579965 L17.5101101,11.3797469 L16.8564112,10.4981385 C16.6616456,10.2357124 16.3446933,10.2337539 16.1482171,10.4938953 C15.9517409,10.7540367 15.950519,11.1773784 16.1450403,11.4398046 L17.1528361,12.7995899 Z" id="Path" fill="#B52924"></path>
                <path d="M26.3846154,19 L11.6153846,19 C11.2755408,19 11,19.2238769 11,19.5 C11,19.7761231 11.2755408,20 11.6153846,20 L26.3846154,20 C26.7244592,20 27,19.7761231 27,19.5 C27,19.2238769 26.7244592,19 26.3846154,19 Z" id="Path" stroke="#FFFFFF" stroke-width="0.5" fill="#B52924"></path>
                <path d="M26.3846154,21 L11.6153846,21 C11.2755408,21 11,21.4477539 11,22 C11,22.5522461 11.2755408,23 11.6153846,23 L26.3846154,23 C26.7244592,23 27,22.5522461 27,22 C27,21.4477539 26.7244592,21 26.3846154,21 Z" id="Path" stroke="#FFFFFF" stroke-width="0.5" fill="#B52924"></path>
            </g>
        </g>
    </g>
</svg>