<?xml version="1.0" encoding="UTF-8"?>
<svg width="33px" height="42px" viewBox="0 0 33 42" version="1.1" xmlns="http://www.w3.org/2000/svg" xmlns:xlink="http://www.w3.org/1999/xlink">
    <title>seo-and-web</title>
    <g id="Ecommerce" stroke="none" stroke-width="1" fill="none" fill-rule="evenodd">
        <g id="PRODUCTO-ZAGA-1440" transform="translate(-1144.000000, -804.000000)" fill-rule="nonzero" stroke="#FFFFFF" stroke-width="0.2">
            <g id="seo-and-web" transform="translate(1145.000000, 805.000000)">
                <path d="M19.671522,6.12066204 C15.4980821,4.09116365 10.4707313,4.86714833 7.16187329,8.051531 C3.31619933,11.752381 2.93129846,17.6534589 6.26661195,21.7779233 C6.38451286,21.9236923 6.56073432,22 6.7388825,22 C6.8672322,22 6.99654525,21.9604199 7.10570178,21.8786209 C7.36632872,21.6834302 7.41316302,21.3219316 7.210412,21.0711147 C4.24480787,17.4039257 4.58754305,12.1565263 8.00755845,8.86524161 C10.9502642,6.03315784 15.4208648,5.34296579 19.1323348,7.14774883 C19.4269759,7.29123575 19.7866811,7.17727347 19.9356319,6.89365146 C20.0845087,6.61002946 19.9663855,6.26393501 19.671522,6.12066204 Z" id="Path" fill="#000000"></path>
                <path d="M25.8146229,10.3285205 C25.6628461,10.0337664 25.2965429,9.91547929 24.9960097,10.0643016 C24.6957031,10.213198 24.5751123,10.5728026 24.7268136,10.867705 C26.6364074,14.5790728 25.9052359,19.0496715 22.9073797,21.9920252 C19.4224029,25.4124186 13.8663902,25.755125 9.98347129,22.789277 C9.71782412,22.5864992 9.33513513,22.6333397 9.12846194,22.893927 C8.92178875,23.1545884 8.96958711,23.5302758 9.23515877,23.7331277 C11.2244166,25.2526274 13.603839,26 15.9757102,26 C18.8109161,26 21.6353994,24.931933 23.7691095,22.8376739 C27.1399893,19.5291937 27.9620004,14.5021417 25.8146229,10.3285205 Z" id="Path" fill="#000000"></path>
                <path d="M23.7856652,7.57904632 C23.5738755,7.3393776 23.3513851,7.1026756 23.1243389,6.8757214 C22.8972927,6.64866124 22.6607113,6.42615712 22.4210573,6.21435439 C22.0672976,5.90157718 21.5269637,5.93505875 21.2145236,6.2888403 C20.9016597,6.64251589 20.9349273,7.18277708 21.2886871,7.49544834 C21.5021719,7.68404707 21.7130081,7.8823936 21.9153684,8.08466044 C22.1175168,8.28703323 22.3158511,8.49777642 22.5045442,8.71127442 C22.673425,8.90241605 22.9088411,9 23.1454225,9 C23.3466174,9 23.548554,8.92932845 23.7111839,8.78565437 C24.0650496,8.47308906 24.0983172,7.93282787 23.7856652,7.57904632 Z" id="Path" fill="#000000"></path>
                <path d="M30.6778042,16.2820688 C31.1074252,15.5924583 31.1074252,14.7358943 30.6776445,14.04644 L29.8299815,12.6865158 C29.7183439,12.5072968 29.6751423,12.2944839 29.7085217,12.087296 L29.9611836,10.5167465 C30.0899901,9.7163545 29.7538795,8.92315002 29.0842138,8.44650858 L27.7705158,7.51166323 C27.5968307,7.38799114 27.4733746,7.20760021 27.4228262,7.00338111 L27.0402399,5.45658159 C26.8460321,4.67087712 26.2264355,4.06478234 25.4234116,3.87462576 L23.8422786,3.50025012 C23.6335371,3.45079691 23.4489917,3.33001546 23.3227406,3.16009329 L22.3670335,1.87454422 C21.8799168,1.21938685 21.069067,0.890401913 20.25119,1.01649588 L18.6453019,1.2636838 C18.4335259,1.29626198 18.2159204,1.25407441 18.0328923,1.14485547 L16.6426132,0.315322805 C15.9378111,-0.105146663 15.0622787,-0.105068538 14.3574767,0.315322805 L12.9673573,1.1446211 C12.7843291,1.25391816 12.5668834,1.29594948 12.3548678,1.26344943 L10.7494588,1.0162615 C9.9315818,0.890323788 9.1206522,1.21915247 8.63353545,1.87430984 L7.67798807,3.15954642 C7.55157729,3.32946858 7.36711176,3.45025004 7.1582904,3.49970325 L5.57723721,3.87400076 C4.77429313,4.06400109 4.15461674,4.670174 3.96024917,5.45580034 L3.57758303,7.00267798 C3.52703469,7.20689708 3.4036584,7.38744427 3.22989347,7.5109601 L1.91587608,8.4459617 C1.24621034,8.92244689 0.910179639,9.71557324 1.03882637,10.5159652 L1.29148824,12.0871398 C1.32478786,12.2944058 1.28166605,12.5072186 1.17002847,12.6862814 L0.322205769,14.0465181 C-0.107415231,14.7360506 -0.107415231,15.5926145 0.322285624,16.2820688 L1.16994862,17.6420712 C1.2815862,17.8212902 1.32478786,18.0341031 1.29140839,18.2412909 L1.03874652,19.8119186 C0.909940074,20.6122325 1.24605063,21.4055151 1.91571637,21.8820784 L3.22941434,22.8169238 C3.40309941,22.9404396 3.52655556,23.1209868 3.5771039,23.3252059 L3.95969019,24.8720054 C4.15389805,25.6577099 4.77349458,26.2638047 5.57651851,26.4539612 L6.23676134,26.6102896 L1.76854323,36.3614 C1.67359539,36.568666 1.69986776,36.8097602 1.83745827,36.9927292 C1.97496894,37.1756983 2.2023167,37.2721828 2.43293853,37.2451515 L6.02817955,36.8246039 L8.09930413,39.7301558 C8.22052433,39.900078 8.41832567,40 8.62762617,40 C8.64766982,40 8.66795304,39.9989844 8.68807656,39.9971875 C8.91917752,39.9759375 9.12081191,39.8346091 9.21575975,39.6274994 L13.7790854,29.6681855 L14.3573169,30.0131079 C14.709718,30.2233427 15.1047617,30.328421 15.4998852,30.328421 C15.8950088,30.328421 16.2900525,30.2232645 16.6424535,30.0131079 L17.2415272,29.6557636 L21.8106025,39.6274994 C21.9055503,39.8347653 22.1071048,39.9759375 22.3382856,39.9971875 C22.358489,39.9990625 22.3786924,40 22.398736,40 C22.6080365,40 22.8059177,39.9001561 22.9270581,39.7302339 L24.9981826,36.8246821 L28.5934237,37.2452297 C28.8238858,37.2720266 29.0513933,37.1757764 29.1889039,36.9928074 C29.3264146,36.8098383 29.3528467,36.5687441 29.257819,36.3614782 L24.7872851,26.6049771 L25.4226929,26.4545862 C26.225637,26.2645859 26.8453134,25.658413 27.039681,24.8727866 L27.4223471,23.325909 C27.4728954,23.1216899 27.5963516,22.9411427 27.7700367,22.8176269 L29.084054,21.8826253 C29.7537198,21.4061401 30.0897505,20.6130137 29.9611038,19.8126218 L29.7084419,18.2414472 C29.6751423,18.0341812 29.7182641,17.8213683 29.8299016,17.6423055 L30.6778042,16.2820688 Z M8.50536785,38.0959342 L6.86402397,35.7932741 C6.72795071,35.6023362 6.49525264,35.5001486 6.25904095,35.5279611 L3.40988711,35.8612429 L7.48082557,26.9766184 C7.55525062,27.0301341 7.62200958,27.0942748 7.67702981,27.1684156 L8.6327369,28.4539646 C8.72353227,28.5760742 8.82558722,28.6867775 8.93682552,28.7853715 L6.79407082,33.4617076 C6.64857463,33.7794425 6.79375139,34.1523338 7.11844266,34.2947559 C7.20404744,34.3323341 7.29356512,34.3500685 7.38156555,34.3500685 C7.62767929,34.3500685 7.86277302,34.2113182 7.96985885,33.9774116 L10.1050273,29.3177161 C10.3151263,29.3459193 10.5314541,29.3454505 10.7485804,29.312013 L12.3544686,29.0648251 C12.4506142,29.0500594 12.547798,29.0513875 12.6424264,29.0667001 L8.50536785,38.0959342 Z M27.6166348,35.8610867 L24.7674011,35.5279611 C24.5309498,35.5002267 24.2984913,35.6023362 24.1624181,35.7932741 L22.5210742,38.0959342 L18.3822588,29.0631844 C18.4690614,29.0516219 18.5576208,29.0516219 18.645222,29.0650594 L20.2505512,29.3122474 C20.4764615,29.347013 20.7015734,29.3459193 20.9196579,29.3141224 L23.0564235,33.9775678 C23.163669,34.2115526 23.398603,34.3502247 23.6447168,34.3502247 C23.7327971,34.3502247 23.8223148,34.3324903 23.9078397,34.2949121 C24.2325309,34.1525681 24.3777876,33.7795206 24.2322115,33.4618638 L22.0813116,28.7677152 C22.1850435,28.6734963 22.2809496,28.5691992 22.3664745,28.454199 L23.3220219,27.1689624 C23.3822327,27.0879467 23.4560189,27.0184934 23.5389086,26.9623215 L27.6166348,35.8610867 Z M29.5774793,15.6256615 L28.7296566,16.9858982 C28.4593468,17.4198052 28.3547365,17.9352748 28.4354701,18.4373069 L28.6881319,20.0084033 C28.7412356,20.3387945 28.6024473,20.666217 28.3260684,20.862936 L27.0119712,21.7980158 C26.5913738,22.0973913 26.2922362,22.5346577 26.1698981,23.0292679 L25.7872319,24.5761455 C25.7069774,24.9004429 25.4512811,25.1506777 25.1197223,25.2291935 L23.5385892,25.603491 C23.0329461,25.7231787 22.5859166,26.0158355 22.2799115,26.4273987 L21.3243641,27.7126353 C21.1232887,27.9831826 20.7886954,28.1188078 20.450828,28.0667765 L18.845419,27.8195886 C18.3321896,27.740604 17.8052251,27.8427917 17.3616294,28.1074016 L15.9715899,28.9366998 C15.6806774,29.1101376 15.319093,29.1101376 15.0283402,28.9366998 L13.6379813,28.1073234 C13.2922082,27.9009949 12.895807,27.7934948 12.4946943,27.7934948 C12.3812999,27.7934948 12.2673465,27.8020885 12.1543514,27.8195104 L10.5483834,28.0666984 C10.2105959,28.1187297 9.87600258,27.9828701 9.67492717,27.712479 L8.71914023,26.4269299 C8.41313509,26.0154449 7.96618551,25.7227881 7.46062221,25.6031004 L5.87948916,25.2287248 C5.5480102,25.150209 5.29223398,24.9000523 5.2119795,24.5756768 L4.82939322,23.0288772 C4.70705505,22.5341889 4.40799731,22.0967663 3.98724023,21.7973908 L2.67362212,20.8624673 C2.3971634,20.6657482 2.25845491,20.3382476 2.31163848,20.0078565 L2.56430034,18.4372288 C2.64503396,17.9351185 2.54058335,17.4196489 2.27011377,16.9856638 L1.42245078,15.6255833 C1.24509237,15.3409735 1.24509237,14.987301 1.42245078,14.7027693 L2.27027348,13.3425326 C2.5406632,12.9086256 2.64519367,12.3931559 2.56446006,11.8911238 L2.31179819,10.3200274 C2.25869448,9.98963621 2.39748282,9.66221378 2.67386169,9.46549469 L3.98795893,8.53041497 C4.40855629,8.23103946 4.70769389,7.79377309 4.83003206,7.29916287 L5.2126982,5.75228522 C5.29295268,5.42798779 5.54864905,5.17775299 5.88020786,5.09923723 L7.4613409,4.72493972 C7.96698406,4.60525201 8.41401349,4.31259526 8.71993878,3.90103206 L9.67548616,2.61579549 C9.87656156,2.34532627 10.2111549,2.20946667 10.5490222,2.26157442 L12.1544313,2.50876405 C12.6677405,2.58790481 13.194705,2.48556089 13.6382208,2.22095106 L15.0282604,1.39165277 C15.3191729,1.21821497 15.6807572,1.21821497 15.97151,1.39165277 L17.361869,2.22102919 C17.8053848,2.48571714 18.3324292,2.58798294 18.8454989,2.5089203 L20.4514669,2.26173238 C20.7890947,2.20993542 21.1238477,2.34556065 21.3249231,2.61595174 L22.28071,3.90150081 C22.5867152,4.31298589 23.0336648,4.60564264 23.5392281,4.72533034 L25.1203611,5.09970598 C25.4518401,5.17822174 25.7076163,5.42837842 25.7878708,5.75275397 L26.170457,7.29955349 C26.2927952,7.79424184 26.591853,8.23166446 27.01261,8.53103997 L28.326308,9.46588532 C28.6027667,9.6626044 28.7414752,9.99010496 28.6882916,10.3204962 L28.4356298,11.8911238 C28.3548962,12.3932341 28.4593468,12.9087037 28.7298164,13.3426888 L29.5774793,14.7027693 C29.7549176,14.9873791 29.7549176,15.3410516 29.5774793,15.6256615 Z" id="Shape" fill="#000000"></path>
                <path d="M22.942384,13.2651604 C22.8022354,12.845016 22.4353107,12.5516671 21.9847541,12.4996287 L18.1577814,12.0577633 L16.5436283,8.65032587 C16.3535842,8.24921611 15.9537113,8 15.5,8 C15.0463709,8 14.6464191,8.24921611 14.456375,8.65032587 L12.8422219,12.05784 L9.01524925,12.4997055 C8.5646926,12.5517438 8.19768914,12.8450927 8.05761931,13.2652372 C7.91747066,13.6851514 8.03728278,14.132543 8.37023437,14.4324159 L11.1996135,16.9802227 L10.4485806,20.6608231 C10.3602192,21.094169 10.5333162,21.5245983 10.9003984,21.784176 C11.1028967,21.9273966 11.3378703,22 11.5743416,22 C11.7665928,22 11.959711,21.9520342 12.1371433,21.8553258 L15.4999228,20.0225474 L18.8627024,21.8553258 C19.2586341,22.0711545 19.7324438,22.0439073 20.0995261,21.7842528 C20.4666083,21.5245983 20.6397053,21.0940922 20.5512651,20.6608231 L19.8002322,16.9802995 L22.6296113,14.4324927 C22.9627206,14.1326198 23.0825327,13.6853049 22.942384,13.2651604 Z M18.6753383,16.3063338 C18.5129613,16.4525477 18.4402858,16.6704487 18.4833236,16.8816722 L19.2518553,20.6480054 L15.8105673,18.772399 C15.714087,18.7198233 15.6070443,18.6934972 15.4999228,18.6934972 C15.3928013,18.6934972 15.2858375,18.7197466 15.1892784,18.772399 L11.7479904,20.6480054 L12.5165221,16.8816722 C12.5597175,16.670372 12.4869632,16.4525477 12.3245074,16.3063338 L9.42915284,13.6990436 L13.3455905,13.2468933 C13.5651935,13.2215649 13.7555529,13.0868638 13.8482496,12.8913746 L15.5000017,9.40442143 L17.1517537,12.8913746 C17.2444504,13.0868638 17.434731,13.2215649 17.6544128,13.2468933 L21.5706928,13.6990436 L18.6753383,16.3063338 Z" id="Shape" fill="#B52924"></path>
            </g>
        </g>
    </g>
</svg>