<?xml version="1.0" encoding="UTF-8"?>
<svg width="36px" height="42px" viewBox="0 0 36 42" version="1.1" xmlns="http://www.w3.org/2000/svg" xmlns:xlink="http://www.w3.org/1999/xlink">
    <title>shield</title>
    <g id="Ecommerce" stroke="none" stroke-width="1" fill="none" fill-rule="evenodd">
        <g id="PRODUCTO-ZAGA-1440" transform="translate(-1087.000000, -804.000000)" fill-rule="nonzero" stroke="#FFFFFF" stroke-width="1.2">
            <g id="shield" transform="translate(1088.000000, 805.000000)">
                <path d="M33.9603797,10.8530219 L33.9591613,10.821894 C33.941798,10.4376784 33.9302225,10.0311851 33.9232163,9.57891544 C33.8906221,7.37341426 32.1405888,5.54907696 29.9388063,5.42578618 C25.3482054,5.16913377 21.7969629,3.66950288 18.7626579,0.706556895 L18.7367654,0.681837645 C17.7470599,-0.227279215 16.2541246,-0.227279215 15.2641144,0.681837645 L15.2382219,0.706556895 C12.203917,3.66950288 8.6526744,5.16913377 4.06207358,5.42609133 C1.86059563,5.54907696 0.110257663,7.37341426 0.077663542,9.5792206 C0.0709618959,10.0284385 0.0590817548,10.4349319 0.0417185195,10.821894 L0.0398908475,10.8942205 C-0.0493623547,15.5838478 -0.160243568,21.4203236 1.78870566,26.7178598 C2.8603536,29.6310623 4.48336099,32.163406 6.61233969,34.2450061 C9.03710299,36.6156071 12.2130555,38.4976225 16.0518579,39.8385623 C16.1767515,39.8822024 16.306519,39.9176027 16.4387234,39.9441529 C16.6251499,39.9813843 16.8127949,40 17.0004399,40 C17.1880849,40 17.3760345,39.9813843 17.5621564,39.9441529 C17.6943609,39.9176027 17.8250422,39.8818972 17.950545,39.8379519 C21.7847782,38.4945708 24.9573798,36.6116397 27.3800108,34.241344 C29.5080757,32.1591336 31.1310831,29.6261795 32.2036449,26.7123667 C34.1599049,21.3989613 34.0493283,15.5514993 33.9603797,10.8530219 Z M30.0055177,25.9002955 C27.949952,31.4837809 23.7538322,35.3183073 17.1774233,37.62238 C17.1539676,37.6303146 17.1289889,37.6373336 17.1030963,37.6425216 C17.0351664,37.6559493 16.966018,37.6559493 16.8971743,37.6422164 C16.8715862,37.6370284 16.8466076,37.6303146 16.8234566,37.62238 C10.2400414,35.3225797 6.04117998,31.4901896 3.98713739,25.9063989 C2.19080209,21.0232906 2.29254471,15.6656348 2.38240711,10.9390813 L2.38301638,10.9128363 C2.40129349,10.506648 2.41347823,10.0812338 2.4201798,9.61370545 C2.43480149,8.63439818 3.21340639,7.82415809 4.1927549,7.76953171 C6.7905415,7.62426831 9.07274333,7.12133958 11.1697371,6.23205901 C13.2639894,5.34399922 15.1239899,4.09217052 16.8554415,2.40516201 C16.9434763,2.33069927 17.0577082,2.33039411 17.1454383,2.40516201 C18.8771945,4.09217052 20.7371951,5.34399922 22.8311427,6.23205901 C24.9281364,7.12133958 27.2103384,7.62426831 29.8084296,7.76953171 C30.7877781,7.82415809 31.5663829,8.63439818 31.5807,9.61401061 C31.5877062,10.0839804 31.599891,10.5093946 31.6181681,10.9128363 C31.7077259,15.6448829 31.8070315,21.0068111 30.0055177,25.9002955 Z" id="Shape" fill="#000000"></path>
                <path d="M17,10 C11.4858411,10 7,14.4860786 7,19.9998469 C7,25.5139215 11.4858411,30 17,30 C22.5138527,30 27,25.5139215 27,19.9998469 C27,14.4860786 22.5138527,10 17,10 Z M17,27.645222 C12.7841726,27.645222 9.35450783,24.2156097 9.35450783,19.9998469 C9.35450783,15.7840842 12.7841726,12.3544719 17,12.3544719 C21.2155212,12.3544719 24.645186,15.7840842 24.645186,19.9998469 C24.645186,24.2156097 21.2155212,27.645222 17,27.645222 Z" id="Shape" fill="#B52924"></path>
                <path d="M19.9750613,16.3524962 L15.2951619,21.0968505 L14.0249387,19.8091329 C13.5616373,19.3394506 12.8105461,19.3394506 12.3472447,19.8091329 C11.8842518,20.2788152 11.8842518,21.0402509 12.3472447,21.5096205 L14.4564691,23.6478947 C14.6881198,23.8827358 14.9916409,24 15.2951619,24 C15.5986829,24 15.902204,23.8827358 16.1338547,23.6478947 L21.6527552,18.0529839 C22.1157483,17.5833015 22.1157483,16.8218658 21.6527552,16.3524962 C21.1894539,15.8825013 20.4383627,15.8825013 19.9750613,16.3524962 Z" id="Path" fill="#B52924"></path>
            </g>
        </g>
    </g>
</svg>