<?xml version="1.0" encoding="UTF-8"?>
<svg width="19px" height="16px" viewBox="0 0 19 16" version="1.1" xmlns="http://www.w3.org/2000/svg" xmlns:xlink="http://www.w3.org/1999/xlink">
    <title>FAVORITOS ROJO</title>
    <g id="Symbols" stroke="none" stroke-width="1" fill="none" fill-rule="evenodd">
        <g id="Nick-Bateman-Underwear-Simons-3" transform="translate(-276.000000, -11.000000)" fill="#B52924" fill-rule="nonzero">
            <g id="love-and-romance-copy-4" transform="translate(276.000000, 11.000000)">
                <path d="M17.1858317,1.56580798 C16.2195434,0.556100564 14.8936564,0 13.4521281,0 C12.3746135,0 11.3878174,0.328199499 10.5190837,0.97540561 C10.0807292,1.30209582 9.68353272,1.70178027 9.33333333,2.16828458 C8.98327639,1.70191747 8.5859375,1.30209582 8.14744058,0.97540561 C7.2788493,0.328199499 6.29205321,0 5.21453858,0 C3.77301024,0 2.44698081,0.556100564 1.48069254,1.56580798 C0.525939932,2.56371556 0,3.92700579 0,5.4047268 C0,6.92566803 0.58831788,8.31790897 1.85139974,9.78629986 C2.98132326,11.0997839 4.60528564,12.433163 6.48588055,13.977155 C7.12803142,14.5044421 7.85591632,15.1021164 8.61171467,15.7387576 C8.81138103,15.907248 9.06758628,16 9.33333333,16 C9.59893798,16 9.85528564,15.907248 10.0546671,15.739032 C10.8104655,15.1022536 11.5387777,14.5043049 12.1812134,13.9767434 C14.0615234,12.4330258 15.6854858,11.0997839 16.8154093,9.78616266 C18.0784912,8.31790897 18.6666667,6.92566803 18.6666667,5.4045896 C18.6666667,3.92700579 18.1407267,2.56371556 17.1858317,1.56580798 Z" id="Path"></path>
            </g>
        </g>
    </g>
</svg>